<svg width="120" height="120" viewBox="0 0 120 120" fill="none" xmlns="http://www.w3.org/2000/svg">
<path d="M45.5299 10C44.2146 10 43.4239 10 41.7935 10C45.5299 20 41.7935 10 45.5299 20H93.089L47.216 66.25C54.2086 73.3 47.216 66.25 54.2086 73.3L100.082 27.05V75C110 79.5891 100.082 75 110 79.5891C110 77.9452 110 76.326 110 75V10H45.5299Z" fill="black" fill-opacity="0.51"/>
<path d="M40.8224 110C41.4512 110 41.8292 110 42.6087 110C40.8224 105.276 42.6087 110 40.8224 105.276H18.0849L40.0162 83.4252C36.6732 80.0945 40.0162 83.4252 36.6732 80.0945L14.7419 101.945V79.2914C10 77.1233 14.7419 79.2914 10 77.1233C10 77.8999 10 78.6649 10 79.2914V110H40.8224Z" fill="black" fill-opacity="0.51"/>
</svg>
