<svg width="52" height="47" viewBox="0 0 52 47" fill="none" xmlns="http://www.w3.org/2000/svg">
<path d="M41.6929 19.0204C41.5775 18.8857 41.4341 18.7775 41.2728 18.7034C41.1115 18.6292 40.9359 18.5908 40.7583 18.5909H33.3797V13.6818C33.3797 12.7053 32.991 11.7688 32.2991 11.0784C31.6072 10.3879 30.6688 10 29.6903 10H22.3117C21.3332 10 20.3948 10.3879 19.7029 11.0784C19.011 11.7688 18.6224 12.7053 18.6224 13.6818V18.5909H11.2437C11.0654 18.5888 10.8889 18.6255 10.7262 18.6984C10.5636 18.7712 10.4188 18.8785 10.3018 19.0127C10.1848 19.147 10.0985 19.305 10.0488 19.4759C9.99906 19.6467 9.98717 19.8263 10.0139 20.0022L12.3259 34.9135C12.4148 35.4988 12.7127 36.0323 13.1647 36.4157C13.6167 36.7991 14.1923 37.0065 14.7855 36.9998H37.2411C37.8343 37.0065 38.4099 36.7991 38.8619 36.4157C39.3139 36.0323 39.6118 35.4988 39.7007 34.9135L41.9881 20.0022C42.0127 19.827 41.9991 19.6485 41.9481 19.4791C41.8972 19.3096 41.8101 19.1532 41.6929 19.0204ZM21.0819 13.6818C21.0819 13.3563 21.2115 13.0441 21.4421 12.814C21.6727 12.5838 21.9855 12.4545 22.3117 12.4545H29.6903C30.0165 12.4545 30.3293 12.5838 30.5599 12.814C30.7905 13.0441 30.9201 13.3563 30.9201 13.6818V18.5909H21.0819V13.6818ZM37.2411 34.5453H14.7609L12.6825 21.0454H39.3195L37.2411 34.5453Z" fill="black"/>
<circle cx="36" cy="34" r="8" fill="black" stroke="white" stroke-width="2"/>
<path d="M36.4588 30.7273V38H35.358V31.8281H35.3153L33.5753 32.9645V31.9134L35.3899 30.7273H36.4588Z" fill="white"/>
</svg>
