<svg width="30" height="25" viewBox="0 0 30 25" fill="none" xmlns="http://www.w3.org/2000/svg">
<path d="M21.8182 0C18.9545 0 16.4645 1.25914 15 3.36924C13.5355 1.25914 11.0455 0 8.18182 0C6.01264 0.00246326 3.93303 0.843757 2.39919 2.33933C0.865348 3.8349 0.00252629 5.86262 0 7.97768C0 11.8601 2.48182 15.9008 7.37727 19.9854C9.62052 21.8492 12.0437 23.4968 14.6127 24.905C14.7318 24.9674 14.8648 25 15 25C15.1352 25 15.2682 24.9674 15.3873 24.905C17.9563 23.4968 20.3795 21.8492 22.6227 19.9854C27.5182 15.9008 30 11.8601 30 7.97768C29.9975 5.86262 29.1347 3.8349 27.6008 2.33933C26.067 0.843757 23.9874 0.00246326 21.8182 0ZM15 23.2828C12.7623 22.0237 1.63636 15.3863 1.63636 7.97768C1.63817 6.28557 2.32836 4.66327 3.55548 3.46676C4.7826 2.27026 6.44641 1.59729 8.18182 1.59554C10.9473 1.59554 13.2695 3.03551 14.2432 5.35435C14.3048 5.50067 14.4097 5.62582 14.5444 5.71389C14.6792 5.80197 14.8378 5.84899 15 5.84899C15.1622 5.84899 15.3208 5.80197 15.4556 5.71389C15.5903 5.62582 15.6952 5.50067 15.7568 5.35435C16.7305 3.03551 19.0527 1.59554 21.8182 1.59554C23.5536 1.59729 25.2174 2.27026 26.4445 3.46676C27.6716 4.66327 28.3618 6.28557 28.3636 7.97768C28.3636 15.3863 17.2377 22.0237 15 23.2828Z" fill="black" fill-opacity="0.51"/>
</svg>
