<svg width="72" height="74" viewBox="0 0 72 74" fill="none" xmlns="http://www.w3.org/2000/svg">
<path d="M1 0H37.7057C44.7057 0.5 53.8057 4.7 54.2057 17.5C54.6057 30.3 43.3724 35.1667 37.7057 36H19.2057C18 36 18 36.9528 19.2057 37H42.5C53.0969 37 57.9086 36.8568 62.5 39.5C66.7908 41.9701 71.2057 47.7369 71.2057 54.5C71.2057 60.0696 69.6951 63.579 68 66.5C66.8751 67.8124 65.7001 69.0344 64.3996 70.1095C59.8445 73.875 53.5275 74 47.6175 74H1.20571V56.5L51 56C53 56 53.0424 55 51 55C46.4178 55 39.5292 54.6885 25.8087 54.8441C19.7586 54.9127 13.3533 54.9552 8.37546 51.5157C3.53863 48.1735 -5.21563e-06 42.9102 0 37C6.48045e-06 29.6566 2.94021 24.9817 9.45089 20.6464C11.7142 19.1394 14.4269 18.5 17.146 18.5H35C36.5 18.5 36.5 17.5 35 17.5C31.1383 17.5 21.8682 17.0138 1.20571 17.5C1.20571 15 1.20571 15 1 0Z" fill="black"/>
</svg>
