<svg width="44" height="43" viewBox="0 0 44 43" fill="none" xmlns="http://www.w3.org/2000/svg">
<path d="M0.617926 0H23.2993C27.6248 0.290541 33.2479 2.73108 33.4951 10.1689C33.7423 17.6068 26.8009 20.4347 23.2993 20.9189H11.8677C11.1227 20.9189 11.1227 21.4726 11.8677 21.5H26.2619C32.8099 21.5 35.7833 21.4168 38.6204 22.9527C41.2718 24.388 43.9999 27.739 43.9999 31.6689C43.9999 34.9053 43.0664 36.9445 42.019 38.6419L41.9403 38.7279C38.1722 42.826 32.113 43 26.5459 43H0.745041V32.8311L31.5142 32.5405C32.7501 32.5405 32.7763 31.9595 31.5142 31.9595C29.0307 31.9595 25.4507 31.8202 18.8871 31.847C13.192 31.8702 6.82315 32.1383 2.86789 28.0406C1.12664 26.2367 -2.31339e-06 23.9652 0 21.5C3.59414e-06 17.6701 1.4636 15.0893 4.67238 12.7793C6.76628 11.2718 9.38053 10.75 11.9606 10.75H21.6274C22.5543 10.75 22.5543 10.1689 21.6274 10.1689C19.2411 10.1689 13.5129 9.88641 0.745041 10.1689V10.1689C0.745041 8.71622 0.745041 8.7162 0.617926 0Z" fill="white"/>
</svg>
