<svg width="52" height="50" viewBox="0 0 52 50" fill="none" xmlns="http://www.w3.org/2000/svg">
<path d="M38.3586 34.2898L31.8298 28.1691C33.4016 26.2073 34.2502 23.8195 34.2473 21.3659C34.2473 15.0988 28.8086 10 22.1236 10C15.4387 10 10 15.0988 10 21.3659C10 27.633 15.4387 32.7318 22.1236 32.7318C24.7408 32.7345 27.2878 31.939 29.3803 30.4654L35.9092 36.5862C36.2397 36.8631 36.6707 37.011 37.1138 36.9994C37.5569 36.9877 37.9785 36.8175 38.2919 36.5237C38.6054 36.2298 38.7869 35.8346 38.7993 35.4192C38.8117 35.0038 38.654 34.5997 38.3586 34.2898ZM13.4639 21.3659C13.4639 19.7602 13.9718 18.1906 14.9233 16.8555C15.8749 15.5204 17.2273 14.4799 18.8097 13.8654C20.3921 13.2509 22.1333 13.0901 23.8131 13.4034C25.4929 13.7167 27.0359 14.4899 28.247 15.6253C29.4581 16.7607 30.2829 18.2072 30.617 19.7821C30.9511 21.3569 30.7796 22.9893 30.1242 24.4727C29.4688 25.9562 28.3588 27.2241 26.9347 28.1162C25.5107 29.0083 23.8364 29.4844 22.1236 29.4844C19.8278 29.4819 17.6267 28.6257 16.0033 27.1037C14.3799 25.5818 13.4667 23.5183 13.4639 21.3659Z" fill="black"/>
</svg>
